<?xml version="1.0" encoding="utf-8"?>
<!-- Generator: Adobe Illustrator 18.0.0, SVG Export Plug-In . SVG Version: 6.00 Build 0)  -->
<!DOCTYPE svg PUBLIC "-//W3C//DTD SVG 1.1//EN" "http://www.w3.org/Graphics/SVG/1.1/DTD/svg11.dtd">
<svg version="1.1" id="Layer_1" xmlns="http://www.w3.org/2000/svg" xmlns:xlink="http://www.w3.org/1999/xlink" x="0px" y="0px"
	 viewBox="0 0 192.8 192.8" enable-background="new 0 0 192.8 192.8" xml:space="preserve">
<g>
	<polygon fill-rule="evenodd" clip-rule="evenodd" fill="#FFFFFF" points="0,0 192.8,0 192.8,192.8 0,192.8 0,0 	"/>
	<path fill-rule="evenodd" clip-rule="evenodd" fill="#647891" d="M51.3,133.2c0-0.3-0.1-0.6-0.1-1.2c-0.1-0.3-0.1-0.5-0.1-0.8
		l-1.1,0.1h-0.3c-2.9,0.1-6.2-0.1-9.4-0.6c-3.2-0.5-6.3-1.4-8.7-2.5c-4.9-2.3-9-5.5-10.9-8.1c-1.1-1.6-1.8-3.3-1.9-5
		c-0.2-3.3,1.2-5.9,4.4-7.5c1.9-0.9,4.4-1.1,7.7-0.5c4.2,0.9,6.9,1.5,8.6,1.9c-7.5-12.5-13.1-26-16.4-37.9
		c-4.6-16.5-4.6-30.8,0.3-37.1C30.8,24.6,40,19.8,49,17.7c13.2-3.1,26.3-0.3,31.9,1.3c1.6-0.3,3.2-0.5,4.8-0.7
		c2.3-0.2,4.6-0.4,7-0.4c4.6-0.1,8.7,0.5,12.5,1.6c2.8,0.8,5.4,2,7.7,3.3c13.7-4.7,64-18,61.2,37.9c-0.3,6.7-5.6,33.8-13.5,52.6
		c-2.7,6.5-5.9,12.1-9.3,16c-4.8,5.3-10.3,7.7-16.6,5.4c-1.7-0.6-3.3-1.5-4.9-2.8c-0.3,0.3-0.6,0.6-0.9,0.9
		c-1.9,1.8-4.9,3.2-7.4,3.8c-2.9,0.7-7.7,1.6-13,0.7c-2-0.3-4-0.9-6.1-1.8c0.1,0.9,0.1,1.8,0.1,2.8c-0.1,1.4-0.1,2.8-0.1,3.8
		c-0.1,3.4-0.3,6.8-0.7,10c-0.4,3.4-1,6.4-1.8,8.9c-0.1,0.3-0.2,0.6-0.4,1c-2,6.3-5.7,17.6-23.2,13.8c-6.8-1.5-12.8-3.3-17.7-10.2
		C54.4,159.5,51.7,149.9,51.3,133.2L51.3,133.2z"/>
	<path fill-rule="evenodd" clip-rule="evenodd" fill="#FFFFFF" d="M58.2,121.4c0.4-8.5-3.8-10-6.7-10.9c0.3-0.4,0.7-1,1.2-1.6
		c1.5-1.8,3.4-4.2,4.9-7.9c0.2-0.6,0.9-1.8,1.8-3.4c3.9-6.9,11.5-20.6,10-29.9c-1.1-6.7-6.1-11.1-18.8-9.7c0-0.1,0.1-0.3,0.1-0.4
		c0.6-1.7,1.6-4,3-6.5c5.5-10.1,17.6-24.1,39-24.5c25.9-0.4,30.6,25.3,31.4,36.1c-1.2-0.7-2.5-1.4-3.9-2c-2.2-0.9-4.6-1.6-7.1-2
		c-2.6-0.4-5.2-0.3-7.5,0.4c-3.7,1.1-6.6,3.9-7.7,9c-4,18.5-0.4,26.5,2.4,32.7c2,4.5,1.2,2.6,2.5,6.2c0.5,1.3,0.9,2.6,1.2,3.7
		c-0.3-0.1-0.6-0.1-0.9-0.2c-1.7-0.2-3.7,0.5-5,1.5c-1.5,1.1-2.7,2.7-3.3,4.6c-0.6,1.7-0.5,3.3-0.5,5.1c0.2,8.3,0.1,16.5-0.2,23.2
		c-0.3,6.7-0.9,11.6-1.6,13.5c-0.8,1.9-2,4.8-4.4,6.8c-2.3,1.9-5.8,3.1-11.4,1.9c-4.9-1.1-8.2-2.6-10.4-4.8
		c-2.2-2.3-3.4-5.5-4.2-9.9c-0.5-3.3-1.3-9-2-14.6C59.2,131,58.5,123.9,58.2,121.4L58.2,121.4z M119,125.4
		c-8.5-1.8-9.4-2.8-12.1-6.3c-1-1.3-2-2.4-3.2-3.6c-0.4-0.4-0.7-0.4-1-0.5c-0.6-0.1-1.5,0.3-2,0.7c-0.7,0.5-1.3,1.4-1.7,2.4
		c-0.3,1-0.5,2.3,0.2,3.2c3.2,4.4,7.1,6.3,10.7,6.9c3.7,0.6,7.2,0,9.3-0.5c1-0.3,2.2-0.8,3-1.3C121.6,126.1,120.6,125.7,119,125.4
		L119,125.4z M121.5,109.2c0.7-0.6,1.3-1.2,2-1.9c3.2-3.5,5.4-8.2,5.9-13.4c0.2-1.9,0.2-3.8-0.1-5.7c-1.1-7.8-0.7-14.8-0.4-18.5
		c0.1-1,0.1-1.7,0.1-2.3c0-0.2,0.6-23.6-12.7-36.7c12-4,51-13.5,48.9,29.3c-0.3,6.2-5.3,31.8-12.8,49.6c-2.4,5.6-5,10.4-7.7,13.5
		c-2.3,2.6-4.7,3.8-6.9,3c-1.2-0.4-2.6-1.5-4-3.2C128.5,116.7,123.7,111.6,121.5,109.2L121.5,109.2z M73.9,26.1
		c-12.2,5.4-19.9,15.2-24.1,22.8c-1.5,2.7-2.6,5.2-3.3,7.1c-0.8,2.2-1.1,3.9-0.9,4.6c0,0.1,0,0.2,0,0.2c-0.1,3.2,0.3,5.8,0.7,8.5
		c0.3,2.1,0.6,4.3,0.8,6.9c0.1,2.5-0.2,5.1-0.6,7.7c-0.8,6.9-1.7,14.2,2.9,21.7c-0.1,0.1-0.2,0.2-0.2,0.3c-0.2,0.2-0.4,0.5-0.5,0.7
		c-8-12.5-13.8-26.3-17.1-38.3c-3.8-13.9-4.4-25.2-1.3-29.2c5.5-7,12.1-10.8,18.8-12.7C58.6,23.9,68.1,24.9,73.9,26.1L73.9,26.1z
		 M124.4,67.4c0,0.7-0.1,1.3-0.1,2c-0.2,3.8-0.7,11,0.5,19.3c0.2,1.6,0.3,3.2,0.1,4.7c-0.4,4.2-2.1,8-4.8,10.8
		c-2.6,2.8-6,4.7-9.7,5.3c-0.7,0.1-1.4,0.1-2,0.2c-0.3-1.4-0.8-2.8-1.4-4.3c-0.7-2-0.9-2.9-2.6-6.4c-2.5-5.6-5.8-12.8-2.1-30
		c0.7-3.3,2.5-5,4.6-5.7c1.6-0.5,3.5-0.5,5.5-0.2c2.1,0.3,4.2,1,6.1,1.7C121.9,66.2,124.4,67.3,124.4,67.4L124.4,67.4z M111.1,65.6
		c-1.7-0.4-3.9,0-5.4,0.8c-0.9,0.5-1.3,1.1-1.2,1.8l0,0l0,0l0,0l0,0c0.1,0.5,0.6,1.3,1.5,1.9c0.8,0.5,1.8,0.9,3,0.8l0,0l0,0h0l0,0
		c1.1-0.2,2.1-0.8,2.8-1.5c0.7-0.7,1.1-1.5,1.1-2.2C112.8,66.4,112.3,65.9,111.1,65.6L111.1,65.6z M50.2,62.5
		c10.3-1.3,14.2,1.5,14.9,5.9c1.2,7.8-5.9,20.6-9.5,27.1c-1,1.7-1.7,3.1-2,3.9c-0.4,0.9-0.8,1.7-1.2,2.4c-2.7-5.7-2-11.6-1.3-17.1
		c0.3-2.9,0.7-5.7,0.6-8.4c-0.1-2.8-0.5-5.2-0.8-7.4C50.5,66.7,50.2,64.7,50.2,62.5L50.2,62.5z M48.9,114.4c0.3,0.1,0.7,0.2,1.1,0.3
		c1.6,0.4,4,1.1,3.8,6.4c-0.2,0.2-0.9,0.4-1.9,0.6c-1.6,0.3-3.7,0.4-5.9,0.3c-3.9-0.2-8-1.1-10.7-2.3c-2.7-1.3-5-2.8-6.4-4.1
		C34.7,116.7,43.6,118.4,48.9,114.4L48.9,114.4z M54.3,65.6L54.3,65.6L54.3,65.6c-0.1,0.5,0.3,1.3,1,1.9c0.8,0.8,1.7,1.3,2.7,1.4
		c0.7,0.1,1.5-0.1,2.3-0.5c0.9-0.5,1.6-1.2,1.6-1.9c0-0.5-0.3-1-1-1.4c-0.6-0.3-1.5-0.6-2.5-0.8c-1-0.1-1.9-0.1-2.6,0.1
		C54.9,64.6,54.4,65,54.3,65.6L54.3,65.6z M46.2,111.2c-1,1-4.5,2.5-16.3,0.1c-2.3-0.5-3.9-0.4-4.9,0.1c-1.3,0.6-1.9,1.7-1.8,3.1
		c0.1,0.9,0.4,1.7,1.1,2.6c1.5,2.1,4.9,4.7,9.2,6.7c3.1,1.5,7.9,2.4,12.3,2.7c2.6,0.1,5,0,7-0.4c0.5-0.1,1-0.2,1.4-0.4
		c0.4,3.3,0.9,7.9,1.5,12.6c0.7,5.9,1.5,11.7,2.1,14.8c0.9,5.4,2.5,9.3,5.4,12.3c2.9,3,6.9,4.9,12.7,6.1c7.3,1.6,12-0.2,15.2-2.8
		c3.2-2.7,4.7-6.2,5.6-8.6c1-2.4,1.6-7.9,1.9-14.9c0.2-5.2,0.3-11.2,0.3-17.6c3.3,3,6.9,4.4,10.3,5c4.5,0.8,8.7,0,11.2-0.6
		c1.8-0.5,4.1-1.5,5.4-2.7c0.8-0.7,1.3-1.6,1.5-2.6c0.2-1.1-0.2-2.3-1.2-3.2c-1-1-2.9-1.8-6-2.5c-6.9-1.4-7.5-2.2-9.5-4.7
		c-0.5-0.6-1-1.3-1.6-1.9c0-0.1,0-0.2,0-0.3c0.8,0,1.5-0.1,2.2-0.2c2.4-0.3,4.6-1.1,6.7-2.2c1.9,2,6.9,7.4,12.3,14
		c1.9,2.4,4,3.8,6,4.5c4.3,1.5,8.2-0.3,11.8-4.2c3.1-3.5,6-8.7,8.5-14.7c7.7-18.3,12.8-44.6,13.1-51.1c2.6-53-49.1-35.9-57.4-32.9
		c-4.9-3.3-11.2-5.4-19.4-5.3c-4,0.1-7.7,0.5-11.1,1.4c-1.6-0.4-3.9-1.1-4.1-1.1c-0.3-0.1-0.7-0.2-1.1-0.3c-6.1-1.4-17.2-3-28.5,0.2
		c-7.5,2.1-14.9,6.4-21.1,14.2c-4,5.2-3.7,18,0.5,33.2C30.9,82.8,37.4,97.8,46.2,111.2L46.2,111.2z"/>
</g>
</svg>
